<svg xmlns="http://www.w3.org/2000/svg" viewBox="0 0 512 512" width="512" height="512">
  <defs>
    <linearGradient id="bgGrad" x1="0%" y1="0%" x2="100%" y2="100%">
      <stop offset="0%" style="stop-color:#16a34a"/>
      <stop offset="100%" style="stop-color:#22c55e"/>
    </linearGradient>
  </defs>
  <rect width="512" height="512" rx="128" fill="url(#bgGrad)"/>
  <g transform="translate(128, 100)">
    <path d="M128 20 C60 80, 20 160, 40 240 C60 300, 120 340, 128 340 C136 340, 196 300, 216 240 C236 160, 196 80, 128 20 Z" fill="white" opacity="0.95"/>
    <path d="M128 60 L128 300" stroke="#16a34a" stroke-width="8" fill="none"/>
    <path d="M128 120 L80 90" stroke="#16a34a" stroke-width="6" fill="none"/>
    <path d="M128 160 L176 130" stroke="#16a34a" stroke-width="6" fill="none"/>
    <path d="M128 200 L70 170" stroke="#16a34a" stroke-width="6" fill="none"/>
    <path d="M128 240 L186 210" stroke="#16a34a" stroke-width="6" fill="none"/>
    <circle cx="80" cy="90" r="8" fill="#22c55e"/>
    <circle cx="176" cy="130" r="8" fill="#22c55e"/>
    <circle cx="70" cy="170" r="8" fill="#22c55e"/>
    <circle cx="186" cy="210" r="8" fill="#22c55e"/>
  </g>
</svg>
