<svg xmlns="http://www.w3.org/2000/svg" viewBox="0 0 192 192" width="192" height="192">
  <defs>
    <linearGradient id="bgGrad" x1="0%" y1="0%" x2="100%" y2="100%">
      <stop offset="0%" style="stop-color:#16a34a"/>
      <stop offset="100%" style="stop-color:#22c55e"/>
    </linearGradient>
  </defs>
  <rect width="192" height="192" rx="48" fill="url(#bgGrad)"/>
  <g transform="translate(48, 38)">
    <path d="M48 8 C23 30, 8 60, 15 90 C23 113, 45 128, 48 128 C51 128, 73 113, 81 90 C88 60, 73 30, 48 8 Z" fill="white" opacity="0.95"/>
    <path d="M48 23 L48 112" stroke="#16a34a" stroke-width="3" fill="none"/>
    <path d="M48 45 L30 34" stroke="#16a34a" stroke-width="2.5" fill="none"/>
    <path d="M48 60 L66 49" stroke="#16a34a" stroke-width="2.5" fill="none"/>
    <path d="M48 75 L26 64" stroke="#16a34a" stroke-width="2.5" fill="none"/>
    <path d="M48 90 L70 79" stroke="#16a34a" stroke-width="2.5" fill="none"/>
    <circle cx="30" cy="34" r="3" fill="#22c55e"/>
    <circle cx="66" cy="49" r="3" fill="#22c55e"/>
    <circle cx="26" cy="64" r="3" fill="#22c55e"/>
    <circle cx="70" cy="79" r="3" fill="#22c55e"/>
  </g>
</svg>
